<svg width="486" height="413" viewBox="0 0 486 413" fill="none" xmlns="http://www.w3.org/2000/svg">
<path fill-rule="evenodd" clip-rule="evenodd" d="M230.042 1.74173C280.086 -5.45892 333.828 10.2121 373.142 38.6746C410.931 66.0323 418.537 112.51 437.945 152.257C456.935 191.149 488.861 227.08 485.794 269.393C482.641 312.912 459.565 356.848 421.154 383.959C384.621 409.743 333.76 408.535 287.135 409.607C249.757 410.466 216.948 390.747 179.584 389.512C124.219 387.681 57.4826 434.533 17.226 400.683C-21.2981 368.289 14.8983 308.036 28.4905 262.462C38.1369 230.12 69.6521 208.307 83.8447 177.318C98.969 144.294 90.0364 104.633 113.898 75.9761C142.856 41.1979 182.004 8.65363 230.042 1.74173Z" fill="#C31727" fill-opacity="0.25"/>
</svg>
