<svg width="344" height="330" viewBox="0 0 344 330" fill="none" xmlns="http://www.w3.org/2000/svg">
<path fill-rule="evenodd" clip-rule="evenodd" d="M215.422 1.79988C248.138 9.98237 215.913 72.9158 237.754 98.5977C261.827 126.905 318.364 112.824 337.114 144.895C354.23 174.172 335.365 212.361 322.614 243.747C309.752 275.404 295.927 313.996 263.727 325.524C230.238 337.515 193.712 316.698 161.565 301.407C139.663 290.989 133.563 256.266 109.649 252.235C73.5995 246.16 23.8982 305.749 4.30584 274.905C-16.1877 242.641 60.2407 216.928 63.0318 178.845C65.0086 151.874 10.0236 140.633 16.0783 114.279C21.5923 90.2789 60.6816 96.4331 83.8789 88.1063C100.297 82.2127 118.275 81.9271 132.855 72.3614C163.655 52.1531 179.645 -7.14836 215.422 1.79988Z" fill="url(#paint0_linear_4_61)" fill-opacity="0.15"/>
<defs>
<linearGradient id="paint0_linear_4_61" x1="239.915" y1="11.8488" x2="108.54" y2="322.9" gradientUnits="userSpaceOnUse">
<stop stop-color="#831024"/>
<stop offset="1" stop-color="#C42729"/>
</linearGradient>
</defs>
</svg>
